<svg version="1.1" id="Layer_1" xmlns="http://www.w3.org/2000/svg" xmlns:xlink="http://www.w3.org/1999/xlink" x="0px" y="0px"
	 width="100%" viewBox="0 0 200 200" enable-background="new 0 0 200 200" xml:space="preserve">
<path fill="#FFFFFE" opacity="1.000000" stroke="none" 
	d="
M98.000000,201.000000 
	C65.700691,201.000000 33.401386,201.000000 1.051040,201.000000 
	C1.051040,134.437546 1.051040,67.875053 1.051040,1.000000 
	C40.353676,1.000000 79.708183,1.000000 119.529282,1.408549 
	C119.257500,2.865661 118.478325,4.843528 117.787315,4.813191 
	C113.013290,4.603611 112.730156,7.514279 112.834244,11.248009 
	C112.111839,11.663045 111.556725,11.832957 110.791214,11.737383 
	C108.930573,10.762063 107.280312,10.052229 104.432137,8.827131 
	C106.378052,12.314137 107.685364,14.656793 109.215073,17.302422 
	C109.876045,17.845268 110.314613,18.085140 110.725555,18.523359 
	C110.697914,18.721704 110.376022,18.960047 110.006042,19.075134 
	C104.214676,23.257967 103.798782,25.286577 107.261932,31.406342 
	C107.208199,32.154827 107.091194,32.576241 106.608116,33.066429 
	C105.884972,33.631599 105.203827,34.138973 105.220222,34.622711 
	C105.416138,40.403156 105.715691,46.180084 105.741592,52.250450 
	C97.425285,53.477463 91.241898,57.612335 85.823311,63.480717 
	C84.316803,65.112282 81.491013,65.525703 79.025734,66.485779 
	C78.452118,66.379013 78.193169,66.189110 77.874611,65.672623 
	C77.419006,65.337883 77.092934,65.234406 76.421471,65.085648 
	C63.399876,57.961506 50.723679,50.882652 37.982674,43.472435 
	C36.821095,41.925182 35.943279,40.319183 34.590290,39.559811 
	C28.165024,35.953594 21.644127,32.511192 15.069552,29.183802 
	C13.923929,28.604004 11.692693,28.247818 11.134597,28.858751 
	C10.191948,29.890642 9.574305,31.924911 9.899785,33.277931 
	C10.888969,37.389950 12.271898,41.423443 13.751001,45.394585 
	C14.491714,47.383270 15.774542,49.170040 16.896656,51.286934 
	C16.980583,51.694607 16.980040,51.863476 16.934795,52.407440 
	C17.457155,54.217434 18.024216,55.652328 18.729794,57.389702 
	C18.887003,58.133518 18.905695,58.574863 18.659340,59.259186 
	C19.987129,66.228836 21.545471,72.964203 23.235977,79.666229 
	C23.376598,80.223724 24.409817,80.556076 25.227642,81.317581 
	C25.829809,82.910378 26.257570,84.171326 26.631723,85.447975 
	C31.316532,101.433029 42.090462,107.516617 58.013016,103.155525 
	C62.173641,102.015953 66.331314,100.865593 70.920944,99.812119 
	C73.286453,99.698875 75.221359,99.493721 77.134399,99.290878 
	C90.240318,120.293999 88.256958,115.467125 101.868362,122.568230 
	C104.252487,123.812035 105.011574,124.882149 105.160706,127.539551 
	C105.069717,129.959961 104.918549,131.955002 104.414581,134.048096 
	C100.756760,140.269287 101.581940,146.620392 103.057373,153.422455 
	C102.984261,155.226913 102.874733,156.614243 102.516655,158.270065 
	C101.171181,169.358246 100.074257,180.177948 98.609375,191.074493 
	C98.160851,193.768158 98.080269,196.384995 97.999779,199.334854 
	C97.999908,200.111923 97.999954,200.555954 98.000000,201.000000 
z"/>
<path fill="#FFFEFE" opacity="1.000000" stroke="none" 
	d="
M98.468658,201.000000 
	C97.999954,200.555954 97.999908,200.111923 98.367279,199.294739 
	C101.223297,197.702621 105.808304,198.067886 103.168785,192.761169 
	C103.130020,192.519485 103.023300,192.041733 103.117310,191.794647 
	C103.648659,191.271194 104.085983,190.994812 104.894089,190.779495 
	C106.848770,189.241013 108.432693,187.641479 110.115952,185.789444 
	C110.686264,185.289627 111.157242,185.042297 111.924706,184.798950 
	C112.480080,184.523041 112.738960,184.243179 113.272598,183.774628 
	C122.718224,175.785339 131.665756,167.701401 141.114883,160.253876 
	C153.735992,150.306305 154.980362,139.720291 150.545624,130.400848 
	C147.867493,124.772881 142.835953,120.264816 138.940552,114.888443 
	C140.476929,112.122696 141.927292,109.717575 143.393555,107.322182 
	C151.777069,93.626167 151.446625,74.720871 138.600769,62.600487 
	C138.825516,62.209675 138.950272,62.075191 139.287109,61.867443 
	C139.765808,61.616344 139.919571,61.368473 140.123169,60.755547 
	C149.943253,51.297558 159.600677,42.134579 169.398041,32.908958 
	C169.716797,32.736599 169.850235,32.586529 170.070145,32.210182 
	C170.202011,32.024269 170.624680,31.853493 171.034790,31.897900 
	C173.045044,32.138912 174.645172,32.335518 174.932373,32.370804 
	C178.314529,28.697565 181.090668,25.514585 184.053894,22.516518 
	C186.500046,20.041586 189.322617,17.922821 191.620880,15.329409 
	C192.152527,14.729472 191.227417,12.838541 190.970673,11.388075 
	C191.066406,10.957497 191.055618,10.670757 190.933777,9.971764 
	C188.993973,6.351175 182.251846,4.212768 178.519806,5.316052 
	C175.759811,6.131977 172.866791,6.830702 170.011353,6.924918 
	C163.070312,7.153938 156.112915,6.881295 149.171219,7.100205 
	C147.763168,7.144609 146.395264,8.462344 144.746399,9.298783 
	C144.118164,9.349147 143.752380,9.293788 142.943420,9.163096 
	C140.486359,8.576119 138.496155,7.911726 136.452057,7.595330 
	C134.363159,7.272000 132.144058,6.867841 130.117538,7.239101 
	C124.375084,8.291115 118.701958,9.721512 113.001526,11.002886 
	C112.730156,7.514279 113.013290,4.603611 117.787315,4.813191 
	C118.478325,4.843528 119.257500,2.865661 119.997940,1.408549 
	C125.354927,1.000000 130.709854,1.000000 136.534958,1.422647 
	C136.733643,4.695658 138.450058,5.037897 140.743698,5.024362 
	C150.864258,4.964640 160.986893,4.900475 171.105362,5.057989 
	C174.217239,5.106431 175.371902,3.958835 175.000000,1.000000 
	C183.655136,1.000000 192.310257,1.000000 200.982697,1.000000 
	C200.982697,67.566383 200.982697,134.132782 200.982697,201.000000 
	C166.979691,201.000000 132.958511,201.000000 98.468658,201.000000 
z"/>
<path fill="#FFFFFE" opacity="1.000000" stroke="none" 
	d="
M174.531342,1.000000 
	C175.371902,3.958835 174.217239,5.106431 171.105362,5.057989 
	C160.986893,4.900475 150.864258,4.964640 140.743698,5.024362 
	C138.450058,5.037897 136.733643,4.695658 137.002563,1.422647 
	C149.354233,1.000000 161.708450,1.000000 174.531342,1.000000 
z"/>
<path fill="#FB6807" opacity="1.000000" stroke="none" 
	d="
M18.924387,59.016205 
	C18.905695,58.574863 18.887003,58.133518 18.768164,57.049171 
	C18.105177,54.948223 17.542337,53.490280 16.979498,52.032341 
	C16.980040,51.863476 16.980583,51.694607 16.953232,50.897316 
	C15.148899,43.814953 13.372463,37.361015 11.322450,29.913143 
	C13.539708,30.948133 14.702962,31.432699 15.812716,32.018597 
	C23.230675,35.934933 30.637226,39.872871 38.047482,43.803799 
	C50.723679,50.882652 63.399876,57.961506 76.551498,65.319626 
	C77.352661,65.700554 77.678406,65.802223 78.004150,65.903885 
	C78.193169,66.189110 78.452118,66.379013 79.237000,66.766548 
	C88.138084,71.778412 96.583168,76.497307 104.976089,81.578415 
	C104.251389,84.577034 103.578835,87.213425 102.534363,89.939240 
	C91.605072,93.259171 81.047707,96.489677 70.490341,99.720192 
	C66.331314,100.865593 62.173641,102.015953 58.013016,103.155525 
	C42.090462,107.516617 31.316532,101.433029 26.631723,85.447975 
	C26.257570,84.171326 25.829809,82.910378 25.244547,80.909897 
	C23.016218,73.123848 20.970303,66.070023 18.924387,59.016205 
z"/>
<path fill="#FB6908" opacity="1.000000" stroke="none" 
	d="
M111.628220,184.794983 
	C111.157242,185.042297 110.686264,185.289627 109.789238,185.862274 
	C107.749893,187.697891 106.136604,189.208160 104.523315,190.718445 
	C104.085983,190.994812 103.648659,191.271194 102.854546,191.824539 
	C102.272392,192.364532 102.047028,192.627533 101.611290,192.880768 
	C101.400917,192.871017 101.008186,193.023178 100.896790,192.564301 
	C100.811928,190.123520 100.753082,188.136124 100.879524,186.160599 
	C101.480431,176.772491 102.131805,167.387619 102.765205,158.001587 
	C102.874733,156.614243 102.984261,155.226913 103.292641,153.096909 
	C103.916794,146.219513 104.342094,140.084793 104.767387,133.950058 
	C104.918549,131.955002 105.069717,129.959961 105.349915,127.177643 
	C106.352028,116.633286 107.225121,106.876183 108.495712,97.148056 
	C112.910774,96.424362 116.928337,95.671692 121.246750,95.090637 
	C127.319016,101.926018 133.090439,108.589783 138.861862,115.253548 
	C142.835953,120.264816 147.867493,124.772881 150.545624,130.400848 
	C154.980362,139.720291 153.735992,150.306305 141.114883,160.253876 
	C131.665756,167.701401 122.718224,175.785339 112.974380,183.758698 
	C112.143677,184.219299 111.885948,184.507156 111.628220,184.794983 
z"/>
<path fill="#E9E3DF" opacity="1.000000" stroke="none" 
	d="
M108.098206,97.119087 
	C107.225121,106.876183 106.352028,116.633286 105.289734,126.752289 
	C105.011574,124.882149 104.252487,123.812035 101.868362,122.568230 
	C88.256958,115.467125 90.240318,120.293999 77.134399,99.290878 
	C75.221359,99.493721 73.286453,99.698875 70.920944,99.812119 
	C81.047707,96.489677 91.605072,93.259171 102.690353,90.259422 
	C104.844925,92.699814 106.471565,94.909454 108.098206,97.119087 
z"/>
<path fill="#EBE4DF" opacity="1.000000" stroke="none" 
	d="
M105.028252,81.216202 
	C96.583168,76.497307 88.138084,71.778412 79.481735,66.778740 
	C81.491013,65.525703 84.316803,65.112282 85.823311,63.480717 
	C91.241898,57.612335 97.425285,53.477463 105.927361,52.258041 
	C106.359665,51.973118 106.730621,51.993774 106.814339,52.455681 
	C107.274017,61.616608 107.649986,70.315628 107.844498,79.283493 
	C106.784782,80.106964 105.906517,80.661583 105.028252,81.216202 
z"/>
<path fill="#EC7C32" opacity="1.000000" stroke="none" 
	d="
M108.025948,79.014648 
	C107.649986,70.315628 107.274017,61.616608 106.887077,51.991325 
	C106.908798,45.042591 106.941490,39.020123 106.974190,32.997654 
	C107.091194,32.576241 107.208199,32.154827 107.481056,31.094137 
	C108.549950,26.623255 109.462982,22.791651 110.376022,18.960047 
	C110.376022,18.960047 110.697914,18.721704 110.955200,18.406979 
	C111.777115,17.696993 112.341736,17.301737 112.982033,16.982018 
	C113.057709,17.057554 113.209061,17.208624 113.127815,17.579964 
	C106.351898,37.165672 107.539230,56.831593 109.438179,75.922073 
	C112.235390,77.050941 114.610428,78.009438 116.539116,79.018311 
	C113.403824,79.050674 110.714890,79.032661 108.025948,79.014648 
z"/>
<path fill="#FCE6C9" opacity="1.000000" stroke="none" 
	d="
M37.982674,43.472435 
	C30.637226,39.872871 23.230675,35.934933 15.812716,32.018597 
	C14.702962,31.432699 13.539708,30.948133 11.322450,29.913143 
	C13.372463,37.361015 15.148899,43.814953 16.868759,50.658512 
	C15.774542,49.170040 14.491714,47.383270 13.751001,45.394585 
	C12.271898,41.423443 10.888969,37.389950 9.899785,33.277931 
	C9.574305,31.924911 10.191948,29.890642 11.134597,28.858751 
	C11.692693,28.247818 13.923929,28.604004 15.069552,29.183802 
	C21.644127,32.511192 28.165024,35.953594 34.590290,39.559811 
	C35.943279,40.319183 36.821095,41.925182 37.982674,43.472435 
z"/>
<path fill="#FDFAF4" opacity="1.000000" stroke="none" 
	d="
M112.906357,16.906479 
	C112.341736,17.301737 111.777115,17.696993 110.982841,18.208633 
	C110.314613,18.085140 109.876045,17.845268 109.220642,16.951195 
	C109.669739,14.865623 110.335670,13.434247 111.001602,12.002871 
	C111.556725,11.832957 112.111839,11.663045 112.834244,11.248009 
	C118.701958,9.721512 124.375084,8.291115 130.117538,7.239101 
	C132.144058,6.867841 134.363159,7.272000 136.452057,7.595330 
	C138.496155,7.911726 140.486359,8.576119 142.544678,9.342209 
	C135.567413,10.348149 128.467514,10.696255 121.559570,12.034962 
	C118.476273,12.632483 115.778885,15.221365 112.906357,16.906479 
z"/>
<path fill="#FCE7CD" opacity="1.000000" stroke="none" 
	d="
M102.516655,158.270065 
	C102.131805,167.387619 101.480431,176.772491 100.879524,186.160599 
	C100.753082,188.136124 100.811928,190.123520 100.709442,192.810730 
	C100.081444,192.676559 99.529388,191.837097 98.977333,190.997650 
	C100.074257,180.177948 101.171181,169.358246 102.516655,158.270065 
z"/>
<path fill="#FCE7CD" opacity="1.000000" stroke="none" 
	d="
M104.414597,134.048096 
	C104.342094,140.084793 103.916794,146.219513 103.256226,152.679810 
	C101.581940,146.620392 100.756760,140.269287 104.414597,134.048096 
z"/>
<path fill="#FCE6C9" opacity="1.000000" stroke="none" 
	d="
M18.659340,59.259186 
	C20.970303,66.070023 23.016218,73.123848 25.045227,80.585350 
	C24.409817,80.556076 23.376598,80.223724 23.235977,79.666229 
	C21.545471,72.964203 19.987129,66.228836 18.659340,59.259186 
z"/>
<path fill="#FDFCF7" opacity="1.000000" stroke="none" 
	d="
M98.609375,191.074493 
	C99.529388,191.837097 100.081444,192.676559 100.820839,193.269592 
	C101.008186,193.023178 101.400917,192.871017 101.955307,192.939606 
	C102.742317,193.006393 102.974937,193.004623 103.207550,193.002838 
	C105.808304,198.067886 101.223297,197.702621 98.367203,198.961731 
	C98.080269,196.384995 98.160851,193.768158 98.609375,191.074493 
z"/>
<path fill="#FDFAF4" opacity="1.000000" stroke="none" 
	d="
M110.006042,19.075134 
	C109.462982,22.791651 108.549950,26.623255 107.417786,30.767063 
	C103.798782,25.286577 104.214676,23.257967 110.006042,19.075134 
z"/>
<path fill="#FFFEFE" opacity="1.000000" stroke="none" 
	d="
M110.791214,11.737385 
	C110.335670,13.434247 109.669739,14.865623 108.998245,16.648224 
	C107.685364,14.656793 106.378052,12.314137 104.432137,8.827131 
	C107.280312,10.052229 108.930573,10.762063 110.791214,11.737385 
z"/>
<path fill="#FDFAF4" opacity="1.000000" stroke="none" 
	d="
M106.608116,33.066429 
	C106.941490,39.020123 106.908798,45.042591 106.803360,51.529419 
	C106.730621,51.993774 106.359665,51.973118 106.173889,51.965527 
	C105.715691,46.180084 105.416138,40.403156 105.220222,34.622711 
	C105.203827,34.138973 105.884972,33.631599 106.608116,33.066429 
z"/>
<path fill="#FCE6C9" opacity="1.000000" stroke="none" 
	d="
M16.934795,52.407440 
	C17.542337,53.490280 18.105177,54.948223 18.629646,56.746693 
	C18.024216,55.652328 17.457155,54.217434 16.934795,52.407440 
z"/>
<path fill="#EBE4DF" opacity="1.000000" stroke="none" 
	d="
M77.874611,65.672623 
	C77.678406,65.802223 77.352661,65.700554 76.896896,65.364906 
	C77.092934,65.234406 77.419006,65.337883 77.874611,65.672623 
z"/>
<path fill="#E8E5E3" opacity="1.000000" stroke="none" 
	d="
M138.940552,114.888443 
	C133.090439,108.589783 127.319016,101.926018 121.281471,94.709633 
	C121.554344,91.587067 122.765884,88.928673 122.442825,86.472092 
	C122.121010,84.024918 120.259407,81.780235 119.121246,79.360603 
	C119.169556,79.274437 119.098633,79.090042 119.447441,79.088608 
	C121.860603,77.055214 123.924957,75.023254 125.994217,72.995560 
	C125.999123,72.999840 125.991676,72.989441 126.331482,72.952194 
	C130.614441,69.562233 134.557602,66.209518 138.500763,62.856812 
	C151.446625,74.720871 151.777069,93.626167 143.393555,107.322182 
	C141.927292,109.717575 140.476929,112.122696 138.940552,114.888443 
z"/>
<path fill="#EC7C32" opacity="1.000000" stroke="none" 
	d="
M112.982033,16.982016 
	C115.778885,15.221365 118.476273,12.632483 121.559570,12.034962 
	C128.467514,10.696255 135.567413,10.348149 142.987885,9.417542 
	C143.752380,9.293788 144.118164,9.349147 145.209290,9.378616 
	C148.412415,9.330112 150.892227,9.231428 153.367645,9.297697 
	C165.891159,9.632974 178.413544,10.011133 190.936325,10.374257 
	C191.055618,10.670757 191.066406,10.957497 190.703796,11.482567 
	C188.728638,13.236941 187.018372,14.743223 185.223709,15.907503 
	C185.543930,14.511183 185.948532,13.456864 186.522690,11.960664 
	C184.795944,11.616611 183.209396,10.962445 181.660889,11.042712 
	C158.766968,12.229425 135.324493,7.418865 113.209061,17.208624 
	C113.209061,17.208624 113.057709,17.057554 112.982033,16.982016 
z"/>
<path fill="#EC7C32" opacity="1.000000" stroke="none" 
	d="
M170.624680,31.853493 
	C170.624680,31.853493 170.202011,32.024269 169.888916,32.181259 
	C169.347137,32.487656 169.241226,32.698772 169.258102,32.971603 
	C159.600677,42.134579 149.943253,51.297558 139.892853,60.731544 
	C139.499863,61.002556 139.036972,61.037544 138.955231,60.952988 
	C138.873505,60.868431 138.710220,60.699146 138.850281,60.394142 
	C140.238678,58.354340 141.276260,56.407928 142.770401,54.919937 
	C150.928986,46.794918 159.081665,38.655762 167.504547,30.809320 
	C170.012390,28.473106 173.386475,27.066788 176.259811,25.554237 
	C174.312195,27.867218 172.468445,29.860355 170.624680,31.853493 
z"/>
<path fill="#FDFAF4" opacity="1.000000" stroke="none" 
	d="
M190.933777,9.971764 
	C178.413544,10.011133 165.891159,9.632974 153.367645,9.297697 
	C150.892227,9.231428 148.412415,9.330112 145.471741,9.272894 
	C146.395264,8.462344 147.763168,7.144609 149.171219,7.100205 
	C156.112915,6.881295 163.070312,7.153938 170.011353,6.924918 
	C172.866791,6.830702 175.759811,6.131977 178.519806,5.316052 
	C182.251846,4.212768 188.993973,6.351175 190.933777,9.971764 
z"/>
<path fill="#FDFAF4" opacity="1.000000" stroke="none" 
	d="
M171.034790,31.897900 
	C172.468445,29.860355 174.312195,27.867218 176.455414,25.475567 
	C176.997696,24.908129 177.155533,24.680319 177.547913,24.274342 
	C180.337189,21.527788 182.806946,18.900515 185.280716,16.263348 
	C185.284729,16.253452 185.308090,16.249508 185.308090,16.249508 
	C187.018372,14.743223 188.728638,13.236941 190.705780,11.636167 
	C191.227417,12.838541 192.152527,14.729472 191.620880,15.329409 
	C189.322617,17.922821 186.500046,20.041586 184.053894,22.516518 
	C181.090668,25.514585 178.314529,28.697565 174.932373,32.370804 
	C174.645172,32.335518 173.045044,32.138912 171.034790,31.897900 
z"/>
<path fill="#EC7C32" opacity="1.000000" stroke="none" 
	d="
M138.600769,62.600479 
	C134.557602,66.209518 130.614441,69.562233 126.348602,72.605324 
	C129.917175,68.061752 132.797256,62.721767 138.710220,60.699146 
	C138.710220,60.699146 138.873505,60.868431 138.933182,61.180077 
	C138.992859,61.491726 139.075012,61.940708 139.075012,61.940708 
	C138.950272,62.075191 138.825516,62.209675 138.600769,62.600479 
z"/>
<path fill="#FCE7CD" opacity="1.000000" stroke="none" 
	d="
M104.894081,190.779495 
	C106.136604,189.208160 107.749893,187.697891 109.689896,186.114777 
	C108.432693,187.641479 106.848770,189.241013 104.894081,190.779495 
z"/>
<path fill="#E8E5E3" opacity="1.000000" stroke="none" 
	d="
M139.287109,61.867443 
	C139.075012,61.940708 138.992859,61.491726 139.014923,61.264633 
	C139.036972,61.037544 139.499863,61.002556 139.730179,61.026558 
	C139.919571,61.368473 139.765808,61.616344 139.287109,61.867443 
z"/>
<path fill="#FDFAF4" opacity="1.000000" stroke="none" 
	d="
M169.398041,32.908958 
	C169.241226,32.698772 169.347137,32.487656 169.757050,32.367172 
	C169.850235,32.586529 169.716797,32.736599 169.398041,32.908958 
z"/>
<path fill="#FCE7CD" opacity="1.000000" stroke="none" 
	d="
M111.924713,184.798950 
	C111.885948,184.507156 112.143677,184.219299 112.699623,183.947388 
	C112.738960,184.243179 112.480080,184.523041 111.924713,184.798950 
z"/>
<path fill="#FCE7CD" opacity="1.000000" stroke="none" 
	d="
M103.168785,192.761169 
	C102.974937,193.004623 102.742317,193.006393 102.165680,192.949356 
	C102.047028,192.627533 102.272392,192.364532 102.760529,192.071625 
	C103.023300,192.041733 103.130020,192.519485 103.168785,192.761169 
z"/>
<path fill="#89817B" opacity="1.000000" stroke="none" 
	d="
M119.072929,79.446770 
	C120.259407,81.780235 122.121010,84.024918 122.442825,86.472092 
	C122.765884,88.928673 121.554344,91.587067 120.980621,94.538025 
	C116.928337,95.671692 112.910774,96.424362 108.495712,97.148056 
	C106.471565,94.909454 104.844925,92.699814 103.062286,90.169998 
	C103.578835,87.213425 104.251389,84.577034 104.976089,81.578415 
	C105.906517,80.661583 106.784782,80.106964 107.844498,79.283493 
	C110.714890,79.032661 113.403824,79.050674 116.895950,79.068085 
	C118.157059,79.193901 118.614998,79.320335 119.072929,79.446770 
M114.579300,89.797684 
	C113.321625,89.289482 112.063957,88.781288 110.806290,88.273094 
	C110.135345,90.245758 109.464409,92.218422 108.793465,94.191086 
	C109.340569,94.424118 109.887680,94.657150 110.434784,94.890182 
	C111.776634,93.412140 113.118484,91.934090 114.579300,89.797684 
z"/>
<path fill="#FE6601" opacity="1.000000" stroke="none" 
	d="
M119.121246,79.360603 
	C118.614998,79.320335 118.157059,79.193901 117.342300,79.017700 
	C114.610428,78.009438 112.235390,77.050941 109.438179,75.922073 
	C107.539230,56.831593 106.351898,37.165672 113.127815,17.579964 
	C135.324493,7.418865 158.766968,12.229425 181.660889,11.042712 
	C183.209396,10.962445 184.795944,11.616611 186.522690,11.960664 
	C185.948532,13.456864 185.543930,14.511183 185.223709,15.907504 
	C185.308090,16.249508 185.284729,16.253452 184.918732,16.218975 
	C182.111298,18.920868 179.669846,21.657242 177.228394,24.393620 
	C177.155533,24.680319 176.997696,24.908129 176.559265,25.155727 
	C173.386475,27.066788 170.012390,28.473106 167.504547,30.809320 
	C159.081665,38.655762 150.928986,46.794918 142.770401,54.919937 
	C141.276260,56.407928 140.238678,58.354340 138.850281,60.394142 
	C132.797256,62.721767 129.917175,68.061752 126.008804,72.642578 
	C125.991676,72.989441 125.999123,72.999840 125.639565,73.007324 
	C123.219551,75.039886 121.159096,77.064964 119.098633,79.090042 
	C119.098633,79.090042 119.169556,79.274437 119.121246,79.360603 
z"/>
<path fill="#EC7C32" opacity="1.000000" stroke="none" 
	d="
M119.447441,79.088608 
	C121.159096,77.064964 123.219551,75.039886 125.634659,73.003044 
	C123.924957,75.023254 121.860603,77.055214 119.447441,79.088608 
z"/>
<path fill="#EC7C32" opacity="1.000000" stroke="none" 
	d="
M177.547913,24.274338 
	C179.669846,21.657242 182.111298,18.920868 184.914734,16.228868 
	C182.806946,18.900515 180.337189,21.527788 177.547913,24.274338 
z"/>
<path fill="#7D808B" opacity="1.000000" stroke="none" 
	d="
M114.519821,90.126862 
	C113.118484,91.934090 111.776634,93.412140 110.434784,94.890182 
	C109.887680,94.657150 109.340569,94.424118 108.793465,94.191086 
	C109.464409,92.218422 110.135345,90.245758 110.806290,88.273094 
	C112.063957,88.781288 113.321625,89.289482 114.519821,90.126862 
z"/>
</svg>